<?xml version="1.0" encoding="UTF-8" standalone="no"?>
<svg
   height="20px"
   viewBox="0 -960 960 960"
   width="20px"
   fill="#ffffff"
   version="1.1"
   id="svg1"
   sodipodi:docname="anchor.svg"
   inkscape:version="1.4.2 (ebf0e940d0, 2025-05-08)"
   xmlns:inkscape="http://www.inkscape.org/namespaces/inkscape"
   xmlns:sodipodi="http://sodipodi.sourceforge.net/DTD/sodipodi-0.dtd"
   xmlns="http://www.w3.org/2000/svg"
   xmlns:svg="http://www.w3.org/2000/svg">
  <defs
     id="defs1" />
  <sodipodi:namedview
     id="namedview1"
     pagecolor="#ffffff"
     bordercolor="#111111"
     borderopacity="1"
     inkscape:showpageshadow="0"
     inkscape:pageopacity="0"
     inkscape:pagecheckerboard="1"
     inkscape:deskcolor="#d1d1d1"
     inkscape:zoom="14.707821"
     inkscape:cx="19.785392"
     inkscape:cy="11.966422"
     inkscape:window-width="1920"
     inkscape:window-height="1012"
     inkscape:window-x="0"
     inkscape:window-y="0"
     inkscape:window-maximized="1"
     inkscape:current-layer="svg1" />
  <path
     d="m 480.5,-96 c -35,0 -72.33333,-6 -112,-18 -39.66667,-12 -76,-29 -109,-51 -33,-22 -60.5,-49 -82.5,-81 -22,-32 -33,-68 -33,-108 v -126 l 144,120 -61,62 c 25.33333,35.33333 56.66667,64.16667 94,86.5 37.33333,22.33333 78.33333,36.16667 123,41.5 V -504 H 336 v -72 h 108 v -53 c -24,-7.33333 -44,-21.57333 -60,-42.72 -16,-21.14667 -24,-45.24 -24,-72.28 0,-33.33333 11.66667,-61.66667 35,-85 23.33333,-23.33333 51.66667,-35 85,-35 33.33333,0 61.66667,11.66667 85,35 23.33333,23.33333 35,51.66667 35,85 0,27.33333 -8,51.5 -24,72.5 -16,21 -36,35.16667 -60,42.5 v 53 h 108 v 72 H 516 v 334 c 44.66667,-5.33333 85.66667,-19.33333 123,-42 37.33333,-22.66667 68.66667,-51.66667 94,-87 l -61,-61 144,-120 v 126 c 0,40 -11,76 -33,108 -22,32 -49.5,59.16667 -82.5,81.5 -33,22.33333 -69.16667,39.33333 -108.5,51 -39.33333,11.66667 -76.5,17.5 -111.5,17.5 z M 480,-696 c 13.6,0 25,-4.6 34.2,-13.8 9.2,-9.2 13.8,-20.6 13.8,-34.2 0,-13.6 -4.6,-25 -13.8,-34.2 -9.2,-9.2 -20.6,-13.8 -34.2,-13.8 -13.6,0 -25,4.6 -34.2,13.8 -9.2,9.2 -13.8,20.6 -13.8,34.2 0,13.6 4.6,25 13.8,34.2 9.2,9.2 20.6,13.8 34.2,13.8 z"
     id="path1"
     sodipodi:nodetypes="ssssscccsccccccsssssssccccccscccssssssssssssss"
     style="fill:#999999;fill-opacity:1" />
</svg>
